<svg xmlns="http://www.w3.org/2000/svg" version="1.1" viewBox="-5.0 -10.0 110.0 135.0">
 <g>
  <path d="m34.375 44.531h21.875c2.1562 0 3.9062-1.75 3.9062-3.9062s-1.75-3.9062-3.9062-3.9062h-21.875c-2.1562 0-3.9062 1.75-3.9062 3.9062s1.75 3.9062 3.9062 3.9062z"/>
  <path d="m34.375 60.156h31.25c2.1562 0 3.9062-1.75 3.9062-3.9062s-1.75-3.9062-3.9062-3.9062h-31.25c-2.1562 0-3.9062 1.75-3.9062 3.9062s1.75 3.9062 3.9062 3.9062z"/>
  <path d="m10.582 78.973c-0.73047 2.9258 0.125 6.0273 2.2578 8.1602 2.1367 2.1367 5.2344 2.9961 8.1641 2.2617l10.16-2.5391h-0.003906c11.809 6.0312 25.793 6.043 37.609 0.03125 11.82-6.0117 20.043-17.316 22.121-30.414 2.0781-13.094-2.2383-26.395-11.613-35.77s-22.672-13.695-35.77-11.617c-13.094 2.0781-24.402 10.301-30.414 22.121-6.0117 11.816-6 25.797 0.027344 37.605zm16.477-53.531c6.25-5.6797 14.387-8.8359 22.832-8.8555 8.4453-0.023438 16.602 3.0898 22.883 8.7344 8.0391 7.418 11.961 18.289 10.512 29.133-1.4531 10.844-8.0938 20.297-17.801 25.344-9.707 5.043-21.262 5.043-30.969-0.003906-1.0078-0.52344-2.125-0.80078-3.2578-0.80078-0.5625 0-1.1211 0.066406-1.668 0.20312l-10.484 2.6211c-0.26562 0.070313-0.54688-0.007812-0.73828-0.20703-0.20313-0.1875-0.28125-0.47266-0.20313-0.73828l2.6172-10.484v-0.003907c0.40625-1.6562 0.19531-3.4062-0.59766-4.9219-3.3594-6.5117-4.5078-13.941-3.2695-21.16 1.2422-7.2227 4.8008-13.844 10.145-18.859z"/>
 </g>
</svg>