<svg xmlns="http://www.w3.org/2000/svg" version="1.1" viewBox="-5.0 -10.0 110.0 135.0">
 <path d="m83.602 50c0-3.8008-3.1016-6.8008-6.8008-6.8008h-19.602c3.6992-7.3008 7.8008-19.199 2.1016-27.898-1.6992-2.6992-4.3984-5.6992-7.3984-5.1992s-3.8984 4.1016-5.1016 9.1016c-1.1016 4.3984-2.5 9.8008-5.6016 15.5-2.1016 3.6992-4.6992 7.1016-7.6992 10.199v-2.6016c0-0.69922-0.60156-1.3008-1.3008-1.3008h-14.5c-0.69922 0-1.3008 0.60156-1.3008 1.3008s0.60156 1.3008 1.3008 1.3008h13.102v43.898h-13.102c-0.69922 0-1.3008 0.60156-1.3008 1.3008s0.60156 1.3008 1.3008 1.3008h14.398c0.69922 0 1.3008-0.60156 1.3008-1.3008v-3.8008l9.1992 3.1016c3.8984 1.3008 8 2 12.102 2h21.898c1.8008 0 3.5-0.69922 4.8008-2 1.3008-1.3008 2-3 2-4.8008 0-2.3008-1.1016-4.3008-2.8008-5.5 0.30078-0.19922 0.60156-0.5 0.80078-0.69922 1.3008-1.3008 2-3 2-4.8008 0-2.3008-1.1016-4.3008-2.8008-5.5 0.30078-0.19922 0.60156-0.5 0.80078-0.69922 1.3008-1.3008 2-3 2-4.8008 0-2.3008-1.1016-4.3008-2.8008-5.5 0.30078-0.19922 0.60156-0.5 0.80078-0.69922 1.4023-1.6016 2.2031-3.3008 2.2031-5.1016zm-3.9023 3c-0.80078 0.80078-1.8984 1.1992-3 1.1992-0.69922 0-1.3008 0.60156-1.3008 1.3008s0.60156 1.3008 1.3008 1.3008c2.3008 0 4.1992 1.8984 4.1992 4.1992 0 1.1016-0.39844 2.1992-1.1992 3s-1.8984 1.1992-3 1.1992c-0.69922 0-1.3008 0.60156-1.3008 1.3008s0.60156 1.3008 1.3008 1.3008c2.3008 0 4.1992 1.8984 4.1992 4.1992 0 1.1016-0.39844 2.1992-1.1992 3s-1.8984 1.1992-3 1.1992c-0.69922 0-1.3008 0.60156-1.3008 1.3008s0.60156 1.3008 1.3008 1.3008c2.3008 0 4.1992 1.8984 4.1992 4.1992 0 1.1016-0.39844 2.1992-1.1992 3s-1.8984 1.1992-3 1.1992h-21.898c-3.8984 0-7.6992-0.60156-11.301-1.8984l-10-3.3984v-33.504c4-3.6016 7.3984-7.8008 10-12.5 3.3008-6 4.8008-11.898 5.8984-16.102 0.89844-3.6992 1.6992-6.8984 3.1016-7.1992 0.89844-0.19922 2.6016 0.80078 4.8008 4.1016 5.6016 8.6992-0.39844 21.898-3.1992 27.102-0.19922 0.39844-0.19922 0.89844 0 1.3008 0.19922 0.39844 0.69922 0.60156 1.1016 0.60156h21.699c2.3008 0 4.1992 1.8984 4.1992 4.1992-0.10156 1.1992-0.60156 2.2969-1.4023 3.0977z"/>
</svg>